<?xml version="1.0" encoding="utf-8"?>
<!-- Generator: Adobe Illustrator 24.1.1, SVG Export Plug-In . SVG Version: 6.00 Build 0)  -->
<svg version="1.1" xmlns="http://www.w3.org/2000/svg" xmlns:xlink="http://www.w3.org/1999/xlink" x="0px" y="0px"
	 viewBox="0 0 512 512" style="enable-background:new 0 0 512 512;" xml:space="preserve" fill="#ffffff">
<g>
	<path d="M256,0C113.5,0,0.1,113.5,0.1,256S113.5,512,256,512s255.9-113.5,255.9-256S398.5,0,256,0z M55.6,258.2l198.2,198.1
		C144.7,456.3,55.6,367.3,55.6,258.2z M300.5,451.9L60.1,211.4C80.2,122.4,160.3,55.6,256,55.6c64.2,0.2,124.5,30.7,162.5,82.4
		l-28.9,24.5C359,117.7,308.1,91,253.8,91.2c-69.4-0.4-131.2,43.5-153.7,109.2l209.3,209.3c51.2-17.9,91.3-62.4,102.4-115.8H325V256
		h131.3C456.3,351.7,389.5,431.9,300.5,451.9L300.5,451.9z"/>
</g>
</svg>
