<?xml version="1.0" encoding="utf-8"?>
<svg version="1.1" xmlns="http://www.w3.org/2000/svg" xmlns:xlink="http://www.w3.org/1999/xlink" x="0px" y="0px"
	 viewBox="0 0 512 512" style="enable-background:new 0 0 512 512;" xml:space="preserve" fill="#ffffff">
<g>
	<path d="M502.3,233.1L278.7,9.7c-12.8-12.9-33.7-12.9-46.7,0l-46.3,46.4l58.9,58.8c13.7-4.6,29.4-1.5,40.3,9.4
		c11,11,14.1,26.8,9.4,40.5l56.7,56.7c13.7-4.8,29.6-1.7,40.5,9.3c15.4,15.3,15.4,40.1,0,55.5c-15.3,15.3-40.1,15.3-55.4,0
		c-11.5-11.5-14.4-28.5-8.7-42.6L274.3,191v139.2c3.7,1.8,7.3,4.3,10.4,7.4c15.2,15.4,15.2,40.1,0,55.5c-15.3,15.3-40.3,15.3-55.7,0
		c-15.3-15.3-15.3-40.1,0-55.5c3.9-3.8,8.3-6.7,12.9-8.6V188.5c-4.6-2-9-4.8-12.8-8.6c-11.6-11.6-14.4-28.6-8.4-42.8L162.9,79
		L9.6,232.2c-12.8,12.8-12.8,33.7,0,46.7l223.5,223.5c12.9,12.9,33.7,12.9,46.7,0l222.5-222.5C515.2,267,515.2,246.1,502.3,233.1
		L502.3,233.1z"/>
</g>
</svg>
