<?xml version="1.0" encoding="utf-8"?>
<!-- Generator: Adobe Illustrator 16.0.0, SVG Export Plug-In . SVG Version: 6.00 Build 0)  -->
<!DOCTYPE svg PUBLIC "-//W3C//DTD SVG 1.1//EN" "http://www.w3.org/Graphics/SVG/1.1/DTD/svg11.dtd">
<svg version="1.1" xmlns="http://www.w3.org/2000/svg" xmlns:xlink="http://www.w3.org/1999/xlink" x="0px" y="0px" width="500px"
	 height="500px" viewBox="0 0 500 500" enable-background="new 0 0 500 500" xml:space="preserve">
<g id="Layer_1">
</g>
<g id="Layer_2">
	<path stroke="#fff" fill="#fff" stroke-miterlimit="10" d="M399.821,32.702c0.002,13.886-9.817,25.149-21.929,25.147L30.954,57.886
		C18.841,57.884,9.018,46.63,9.019,32.743l0,0C9.017,18.857,18.835,7.594,30.947,7.597l346.94-0.037
		C390,7.56,399.82,18.815,399.821,32.702L399.821,32.702z"/>
	<path stroke="#fff" fill="#fff" stroke-miterlimit="10" d="M381.134,19.051c12.567,11.058,16.255,27.411,8.23,36.527L159.611,316.685
		c-8.022,9.113-24.708,7.546-37.276-3.515l0,0c-12.561-11.053-16.249-27.41-8.225-36.522L343.866,15.54
		C351.89,6.422,368.573,7.997,381.134,19.051L381.134,19.051z"/>
	<path stroke="#fff" fill="#fff" stroke-miterlimit="10" d="M477.788,341.068c-8.471,11.743-21.621,16.729-29.372,11.139l-222.02-160.179
		c-7.749-5.594-7.168-19.644,1.306-31.388l0,0c8.47-11.739,21.623-16.729,29.371-11.134l222.021,160.182
		C486.847,315.279,486.261,329.329,477.788,341.068L477.788,341.068z"/>
	<path stroke="#fff" fill="#fff" stroke-miterlimit="10" d="M220.937,494.715c-16.788,6.536-35.113-0.277-40.935-15.228L13.312,51.366
		c-5.816-14.947,3.071-32.362,19.859-38.898l0,0C49.956,5.935,68.285,12.748,74.1,27.696l166.692,428.125
		C246.613,470.772,237.72,488.181,220.937,494.715L220.937,494.715z"/>
</g>
</svg>
