<?xml version="1.0" encoding="utf-8"?>
<svg version="1.1" xmlns="http://www.w3.org/2000/svg" xmlns:xlink="http://www.w3.org/1999/xlink" x="0px" y="0px"
	 viewBox="0 0 512 512" style="enable-background:new 0 0 512 512;" xml:space="preserve">
<style type="text/css">
	.st0{fill:#b4b4b4;}
	.st1{fill:#ffffff;}
	.st2{fill:#ffffff;}
</style>
<g>
	<polyline class="st0" points="413.5,163.3 413.5,347.7 256.8,440.4 255.3,441.7 255.3,510.7 256.8,512 477.5,384.5 477.5,127.5 
		475.4,127 413.2,161.8 413.5,163.3 	"/>
	<polyline class="st1" points="99.5,349.2 256.8,440.4 256.8,512 34.5,384 34.5,128 36.8,127.7 98.8,163.7 99.5,165.8 99.5,349.2 	
		"/>
	<polyline class="st2" points="99.5,165.8 34.5,128 256.3,0 477.5,127.5 413.5,163.3 256.3,73.6 99.5,165.8 	"/>
	<polyline class="st0" points="254.1,328.1 252.4,326.4 252.4,257.1 254.1,256.3 254.5,254.6 313.8,219.9 315.7,220.3 315.7,291.7 
		254.1,328.1 	"/>
	<polyline class="st1" points="191.4,293.9 191.4,219.8 193.1,219.7 253.5,254.9 254.1,256.3 254.1,328.1 191.4,293.9 	"/>
	<polyline class="st2" points="253,183.4 191.4,219.8 254.1,256.3 315.7,220.3 253,183.4 	"/>
	<polyline class="st0" points="177.4,373.3 175.7,371.6 175.7,302.3 177.4,301.4 177.8,299.7 237.2,265.1 239,265.5 239,336.9 
		177.4,373.3 	"/>
	<polyline class="st1" points="114.8,339.1 114.8,265 116.5,264.9 176.9,300.1 177.4,301.4 177.4,373.3 114.8,339.1 	"/>
	<polyline class="st2" points="176.4,228.5 114.8,265 177.4,301.4 239,265.5 176.4,228.5 	"/>
	<polyline class="st0" points="336.2,375 334.5,373.3 334.5,304 336.2,303.1 336.6,301.4 396,266.8 397.8,267.2 397.8,338.6 
		336.2,375 	"/>
	<polyline class="st1" points="273.6,340.8 273.6,266.7 275.3,266.6 335.7,301.8 336.2,303.1 336.2,375 273.6,340.8 	"/>
	<polyline class="st2" points="335.2,230.2 273.6,266.7 336.2,303.1 397.8,267.2 335.2,230.2 	"/>
	<polyline class="st0" points="259.5,420.2 257.8,418.5 257.8,349.2 259.5,348.3 259.9,346.6 319.3,312 321.1,312.4 321.1,383.8 
		259.5,420.2 	"/>
	<polyline class="st1" points="196.9,386 196.9,311.9 198.6,311.8 259,346.9 259.5,348.3 259.5,420.2 196.9,386 	"/>
	<polyline class="st2" points="258.5,275.4 196.9,311.9 259.5,348.3 321.1,312.4 258.5,275.4 	"/>
	<polyline class="st0" points="254.1,229.9 252.4,228.2 252.4,158.9 254.1,158 254.5,156.3 313.8,121.7 315.7,122.1 315.7,193.5 
		254.1,229.9 	"/>
	<polyline class="st1" points="191.4,195.7 191.4,121.6 193.1,121.5 253.5,156.6 254.1,158 254.1,229.9 191.4,195.7 	"/>
	<polyline class="st2" points="253,85.1 191.4,121.6 254.1,158 315.7,122.1 253,85.1 	"/>
	<polyline class="st0" points="177.4,275.1 175.7,273.3 175.7,204.1 177.4,203.2 177.8,201.5 237.2,166.9 239,167.3 239,238.6 
		177.4,275.1 	"/>
	<polyline class="st1" points="114.8,240.9 114.8,166.8 116.5,166.7 176.9,201.8 177.4,203.2 177.4,275.1 114.8,240.9 	"/>
	<polyline class="st2" points="176.4,130.3 114.8,166.8 177.4,203.2 239,167.3 176.4,130.3 	"/>
	<polyline class="st0" points="336.2,276.8 334.5,275.1 334.5,205.8 336.2,204.9 336.6,203.2 396,168.6 397.8,169 397.8,240.3 
		336.2,276.8 	"/>
	<polyline class="st1" points="273.6,242.6 273.6,168.5 275.3,168.4 335.7,203.5 336.2,204.9 336.2,276.8 273.6,242.6 	"/>
	<polyline class="st2" points="335.2,132 273.6,168.5 336.2,204.9 397.8,169 335.2,132 	"/>
	<polyline class="st0" points="259.5,322 257.8,320.2 257.8,251 259.5,250.1 259.9,248.4 319.3,213.8 321.1,214.2 321.1,285.5 
		259.5,322 	"/>
	<polyline class="st1" points="196.9,287.7 196.9,213.6 198.6,213.6 259,248.7 259.5,250.1 259.5,322 196.9,287.7 	"/>
	<polyline class="st2" points="258.5,177.2 196.9,213.6 259.5,250.1 321.1,214.2 258.5,177.2 	"/>
</g>
</svg>
