<svg xmlns="http://www.w3.org/2000/svg" viewBox="0 0 512 512" fill="#fff"><path d="M256 0C114.5 0 0 114.5 0 256s114.5 256 256 256 256-114.5 256-256S397.5 0 256 0zM30.7 270.9h88.4c.9 30.7 6.5 61.4 15.8 90.3H56.8c-14.9-27-24.2-57.7-26.1-90.3zm88.5-29.8H30.7c1.9-32.6 11.2-63.3 25.1-90.3H135c-9.3 28.9-14 59.6-15.8 90.3zm47.4-90.3h177.8c10.2 28.9 15.8 59.6 16.8 90.3H149.9c.9-30.7 6.5-61.4 16.7-90.3zm-16.7 120.1h212.2c-1.9 30.7-7.4 61.4-17.7 90.3H166.6c-10.2-28.9-15.8-59.6-16.7-90.3zm241.1 0h89.4c-1.9 32.6-11.2 63.3-25.1 90.3h-80.1c10.2-28.9 14.9-59.6 15.8-90.3zm0-29.8c-.9-30.7-6.5-61.4-15.8-90.3h79.1c14.9 27 23.3 57.7 25.1 90.3H391zm45.6-121h-70.7c-12.1-28.9-27.9-55.9-46.5-81 46.4 14 87.4 42.8 117.2 81zM272.8 30.7c25.1 27 44.7 56.8 59.6 89.4H178.7c14.9-32.6 34.4-62.4 59.6-89.4 5.6 0 12.1-.9 17.7-.9s11.2.9 16.8.9zm-81 8.4c-18.6 25.1-34.4 52.1-46.5 81H75.4c28.9-38.2 69.8-67 116.4-81zM75.4 391.9h69.8c12.1 28.9 27.9 55.9 46.5 81-46.5-14-87.4-42.8-116.3-81zm162.9 89.4c-25.1-27-44.7-56.8-59.6-89.4h153.6c-14.9 32.6-34.4 62.4-59.6 89.4-5.6 0-11.2.9-16.8.9-5.5 0-12-.9-17.6-.9zm80.1-8.4c19.5-25.1 35.4-53.1 46.5-81h70.7c-28.8 38.2-69.8 67-117.2 81z"/></svg>