<?xml version="1.0" encoding="utf-8"?>
<svg version="1.1" xmlns="http://www.w3.org/2000/svg" xmlns:xlink="http://www.w3.org/1999/xlink" x="0px" y="0px"
	 viewBox="0 0 512 512" style="enable-background:new 0 0 512 512;" xml:space="preserve"  fill="#ffffff">
<g>
	<path d="M288,0c27.6,65.2-99,105.1-110.8,159.4c-10.8,49.9,75,108.3,75.1,108.3c-13.1-20.6-22.6-38-35.7-70.2
		C194.5,143.2,351.6,94.2,288,0z M371.7,90.5c0,0-110.7,7-116.3,79.4c-2.5,32.2,29.2,49.2,30.2,72.6c0.8,19.2-19.1,35.1-19.1,35.1
		s35.6-6.5,46.8-35.7c12.3-32.5-24-54.6-20.3-80.6C296.5,136.4,371.7,90.5,371.7,90.5z M398.8,257.3c-11.6-0.5-24.7,3.8-36.3,12.3
		c22.9-5.1,42.5,9.3,42.5,25.8c0,37.1-52.9,72-52.9,72s81.9-9.2,81.9-70.2C433.9,272.1,418.1,258.2,398.8,257.3z M181.5,257.9
		c-28.5,1-85.5,5.7-85.5,27.7c0,30.6,132.8,33,227.7,14.2c0,0,25.8-18,32.6-24.6C294.1,288,152,290,152,278.8
		c0-10.3,45.5-20.9,45.5-20.9S191.1,257.6,181.5,257.9z M172.9,314.5c-15.6,0-38.8,12.2-38.8,24c0,23.8,117.6,42.2,204.3,7.4
		l-30.2-18.5C249.5,346.7,140.8,340.3,172.9,314.5z M187.7,368c-21.3,0-35.1,13.5-35.1,23.4c0,30.5,127.3,33.5,177.9,2.5l-32-20.9
		C260.8,389.2,165.9,391.6,187.7,368z M116.3,395.7c-34.8-0.7-57.2,15.1-57.2,28.3c0,70.4,356.4,67,356.4-4.9
		c0-11.9-14.1-17.6-19.1-20.3c29.1,68.8-291.1,63.4-291.1,22.8c0-9.2,23.7-18.5,45.5-14.2L132.3,397
		C126.8,396.1,121.3,395.8,116.3,395.7z M452.9,443.1c-54.2,52.4-191.3,71.2-329.3,38.8C261.7,539.6,452.3,507.5,452.9,443.1z"/>
</g>
</svg>
