<?xml version="1.0" encoding="utf-8"?>
<svg version="1.1" xmlns="http://www.w3.org/2000/svg" xmlns:xlink="http://www.w3.org/1999/xlink" x="0px" y="0px"
	 viewBox="0 0 512 512" style="enable-background:new 0 0 512 512;" xml:space="preserve" fill="#ffffff">
<g>
	<path d="M364.5,0c-19.9,0.2-39.7,3-58.8,8.6L304.4,9c-12-2.1-24.3-3.2-36.4-3.5c-25.2-0.4-46.8,5.6-64.2,15.8
		C186.6,15.4,151,5.1,113.5,7.2c-26.1,1.4-54.6,9.3-75.8,31.7C16.7,61.1,5.6,95.6,7.9,142.6c0.7,12.9,4.3,34,10.5,61.4
		c6.1,27.3,14.7,59.3,25.4,88.6c10.8,29.2,22.5,55.4,40.8,73.2c9.2,8.9,21.8,16.5,36.7,15.9c10.4-0.4,19.8-5,28-11.8
		c4,5.3,8.3,7.5,12.1,9.6c4.9,2.7,9.6,4.5,14.5,5.7c8.8,2.2,23.9,5.2,41.6,2.2c6-1,12.3-3,18.7-5.7c0.3,7,0.5,13.9,0.8,20.9
		c0.9,22.1,1.5,42.5,8.1,60.4c1.1,2.9,4,17.9,15.5,31.3c11.6,13.3,34.1,21.6,59.8,16.1c18.1-3.8,41.2-10.8,56.5-32.7
		c15.2-21.5,22-52.4,23.3-102.6c0.3-2.8,0.8-5,1.1-7.2l3.6,0.3h0.4c19.3,0.8,40.3-1.9,57.9-10.1c15.5-7.2,27.3-14.4,35.8-27.3
		c2.1-3.2,4.5-7.1,5.1-13.8c0.7-6.6-3.2-17-9.5-21.8c-12.7-9.7-20.7-6-29.3-4.2c-8.4,1.8-17,2.8-25.6,3.1
		c24.7-41.5,42.3-85.7,52.4-124.7c6-23.1,9.3-44.3,9.6-62.9c0.3-18.6-1.2-35-12.3-49.2C454.8,12.8,405.9,0.5,368,0.1L364.5,0
		L364.5,0z M363.5,13.7c35.8-0.3,81.5,9.7,114.3,51.7c7.4,9.4,9.6,23.2,9.3,40.2c-0.3,17-3.4,37.3-9.2,59.5
		c-11.1,43.2-32.2,93.3-61.7,138.4l3.3,1.8c6.2,2.6,20.2,4.7,48.4-1c7.1-1.5,12.3-2.5,17.7,1.6c2.7,2.2,4.1,5.6,3.9,9.1
		c-0.3,2.6-1.2,5.1-2.8,7.2c-5.4,8.1-16.1,15.9-29.9,22.3c-12.2,5.6-29.7,8.6-45.1,8.8c-7.8,0.1-15-0.5-21.1-2.4l-0.3-0.1
		c-2.4,22.6-7.7,67.2-11.3,87.6c-2.8,16.4-7.7,29.5-17.1,39.3c-9.4,9.8-22.7,15.7-40.6,19.5c-22.2,4.8-38.3-0.3-48.7-9.1
		c-10.4-8.8-15.2-20.4-18-27.5c-2-4.9-3-11.3-4-19.8c-1-8.5-1.7-18.8-2.2-30.6c-0.7-17.9-0.9-35.8-0.7-53.8
		c-9.2,8.5-20.7,14.1-33.1,16.3c-14.7,2.5-27.8,0-35.6-1.9c-3.8-1-7.6-2.4-11.1-4.3c-3.7-1.9-7.1-4.1-9.4-8.4
		c-1.3-2.5-1.7-5.4-1.2-8.1c0.6-2.8,2.3-5.2,4.6-7.1c4.2-3.4,9.8-5.3,18.2-7.1c15.3-3.2,20.8-5.3,24-7.9c2.8-2.2,5.9-6.7,11.4-13.3
		l-0.1-0.8c-9.9-0.3-19.6-2.9-28.3-7.7c-3.1,3.3-19.6,20.7-39.5,44.7c-8.3,10-17.6,15.7-27.4,16.2c-9.7,0.4-18.6-4.5-26.1-11.8
		c-15-14.6-27-39.7-37.4-68C46.4,258.6,38,227,31.9,200.2c-6-26.9-9.6-48.6-10.1-59c-2.2-44.4,8.2-74.3,26-93.3
		c17.8-18.9,42.3-26,66.1-27.4c42.8-2.4,83.4,12.5,91.6,15.7c15.8-10.8,36.2-17.4,61.7-17c12.1,0.2,24.1,1.7,35.8,4.7l0.4-0.3
		c5.2-1.7,10.4-3.3,15.7-4.5C333.8,15.6,348.6,13.9,363.5,13.7L363.5,13.7z M366.8,27.9h-3.1c-12.2,0.1-24.4,1.6-36.3,4.2
		c26.6,11.8,46.7,29.8,60.8,48c9.8,12.5,17.9,26.2,24.1,40.9c2.4,5.7,4,10.4,4.8,14.1c0.5,1.8,0.8,3.4,0.9,5l-0.3,3.1l-0.1,0.3
		c0.7,18.7-4,31.3-4.6,49.2c-0.4,12.9,2.9,28.1,3.8,44.7c0.8,15.6-1.1,32.7-11.3,49.5l2.4,3.1c26.8-42.2,46.1-88.8,56.3-128.5
		c5.5-21.4,8.4-40.8,8.7-56.2c0.3-15.3-2.6-26.5-6.3-31.2C437.9,37.5,399.2,28.1,366.8,27.9L366.8,27.9z M264.5,33.4
		c-25.2,0.1-43.3,7.7-57,19.1c-14.2,11.8-23.7,27.9-29.8,44.5c-7.4,19.6-10,38.6-11,51.5l0.3-0.2c7.6-4.2,17.6-8.6,28.3-11
		c10.7-2.5,22.3-3.3,32.7,0.8c10.5,4,19.1,13.6,22.3,28c15,69.5-4.7,95.3-11.9,114.8c-2.8,7.1-5.2,14.3-7.1,21.6l2.8-0.5
		c5.2-0.4,9.2,1.3,11.5,2.3c7.3,3.1,12.3,9.4,15.1,16.7c0.7,1.9,1.1,3.9,1.5,6.1l0.4,2.7c-0.8,26.6-0.8,53.2,0.2,79.7
		c0.5,11.5,1.3,21.6,2.2,29.6c0.9,7.9,2.2,14,3,16.1c2.7,6.8,6.7,15.7,14,21.8c7.2,6.1,17.5,10.1,36.4,6.1
		c16.4-3.6,26.5-8.4,33.2-15.4c6.8-7.1,10.8-16.8,13.3-31.7c3.9-22.4,11.7-87.4,12.6-99.6c-0.4-9.3,0.9-16.3,3.9-21.8
		c3-5.5,7.7-8.9,11.8-10.8c2-0.9,3.9-1.5,5.5-2c-1.7-2.3-3.4-4.7-5.2-6.9c-5.8-7.1-10.7-15-14.3-23.4c-1.7-3.5-3.5-7-5.5-10.4
		c-2.8-5.1-6.4-11.5-10.2-18.8c-7.5-14.3-15.7-31.8-19.9-48.8c-4.2-17-4.8-34.6,6-46.9c9.6-11,26.5-15.6,51.7-13
		c-0.8-2.3-1.1-4.2-2.4-7.1c-5.7-13.5-13.3-26.2-22.3-37.7C355.3,61.4,320.6,34.3,267,33.3L264.5,33.4z M122.8,34.5
		c-2.7,0-5.4,0.1-8.1,0.3C93.2,36,72.8,42.2,58.2,57.7c-14.6,15.5-24.1,40.8-22.1,82.7c0.4,8,3.8,30.2,9.7,56.6
		c5.9,26.4,14.3,57.5,24.4,85c10.1,27.4,22.3,51.3,33.9,62.7c5.8,5.6,10.9,7.9,15.5,7.8c4.6-0.3,10.2-2.9,17-11.1
		c12.4-15,25.3-29.5,38.6-43.7c-19.2-16.8-28.6-42.1-24.8-67.3c2.2-15.7,2.5-30.5,2.2-42.2c-0.2-11.3-1-18.8-1-23.6v-0.4v-0.1
		l-0.1-0.1c0-24.6,4.4-48.9,12.7-72c6-15.9,14.9-32,28.2-45.1c-13.1-4.3-36.3-10.8-61.5-12.1C128.3,34.6,125.5,34.5,122.8,34.5
		L122.8,34.5z M387.3,147.2c-14.5,0.3-22.6,4-26.9,8.8c-6,6.9-6.6,19.1-2.8,34.1c3.7,15,11.5,31.7,18.8,45.7
		c3.6,7,7.1,13.2,9.9,18.3c2.9,5.2,5,8.8,6.3,11.9c1.2,2.8,2.5,5.3,3.8,7.7c5.6-11.8,6.6-23.4,6-35.6c-0.8-15-4.2-30.3-3.7-45.8
		c0.6-18.2,4.2-30,4.4-44C397.9,147.6,392.6,147.2,387.3,147.2L387.3,147.2z M211.7,149.7c-4.4,0-8.8,0.6-13.2,1.6
		c-8.6,2.1-16.8,5.3-24.6,9.6c-2.6,1.4-5.1,3-7.4,4.8l-0.5,0.4c0.2,3.2,0.8,10.7,1,21.8c0.3,12.2,0,27.6-2.3,44.4
		c-5.2,36.5,21.3,66.7,52.4,66.8c1.8-7.5,4.8-15.1,7.8-23.1c8.7-23.3,25.7-40.3,11.3-106.8c-2.3-10.8-7-15.3-13.4-17.7
		C219.2,150.2,215.5,149.6,211.7,149.7L211.7,149.7z M380.6,154h1.1l3.8,0.5l2.9,1.2l1.6,2.3v0.2l-0.8,2.9l-2.3,3.1
		c-2.2,2.4-5.1,4-8.3,4.5c-3.1,0.4-6.2-0.4-8.8-2.2l-2.8-2.5l-1.3-2.8l0.8-2.7l2.5-1.9c2.1-1.2,4.8-2,8-2.4L380.6,154L380.6,154z
		 M213.7,157.6l3.5,0.2c3.3,0.5,6.2,1.3,8.4,2.7l2.8,2.3l1.2,3.6l-1.6,3.3l-3.1,2.8c-2.8,2-6.2,2.8-9.6,2.4
		c-3.4-0.6-6.6-2.2-8.9-4.8l-2.5-3.5l-0.9-3.8c0.3-2.2,2.3-3.5,4.1-4.2C209.3,157.8,211.5,157.6,213.7,157.6L213.7,157.6z
		 M407,314.3L407,314.3c-3.1,1.2-5.7,1.6-7.9,2.6c-2.2,0.8-4,2.5-5.1,4.6c-1.4,2.4-2.5,6.8-2.2,14.2l3.2,1.5
		c3.6,1.1,9.8,1.8,16.6,1.7c13.6-0.2,30.3-3.3,39.3-7.5c7.2-3.3,14.1-7.8,20.1-13.1c-29.7,6.1-46.5,4.5-56.8,0.3
		C411.6,317.4,409.2,316,407,314.3L407,314.3z M235.7,316.3h-0.4c-1.2,0.1-2.8,0.5-6,4c-7.4,8.3-10,13.6-16.1,18.4
		c-6.2,4.9-14.1,7.5-30,10.8c-5,1-7.9,2.2-9.8,3.1l1.5,1.1c2.4,1.3,5.3,2.4,7.8,3.1c6.8,1.7,18,3.7,29.7,1.7
		c11.7-2,23.8-7.6,34.3-22.2c1.8-2.5,2-6.3,0.5-10.3c-1.5-3.9-4.8-7.4-7-8.3C238.7,316.9,237.2,316.5,235.7,316.3L235.7,316.3z"/>
</g>
</svg>
