<?xml version="1.0" encoding="utf-8"?>
<svg version="1.1" xmlns="http://www.w3.org/2000/svg" xmlns:xlink="http://www.w3.org/1999/xlink" x="0px" y="0px"
	 viewBox="0 0 512 512" style="enable-background:new 0 0 512 512;" xml:space="preserve" fill="#ffffff">
<g>
	<path d="M473.6,394.6L265.2,512v-91.4L395,349.4L473.6,394.6z M487.9,381.8V136.3l-76.3,43.9v157.8L487.9,381.8z M38.4,394.6
		L246.8,512v-91.4L117,349.4L38.4,394.6z M24.1,381.8V136.3l76.3,43.9v157.8L24.1,381.8z M33.1,120.4L246.8,0v88.4L108.9,164
		L33.1,120.4z M478.9,120.4L265.2,0v88.4L403.1,164L478.9,120.4z M246.8,399.8l-128.1-70.2v-139l128.1,73.7V399.8z M265.2,399.8
		l128.1-70.2v-139l-128.1,73.7V399.8z M127.4,174.6L256,104.2l128.6,70.4l-128.6,74L127.4,174.6z"/>
</g>
</svg>
