<?xml version="1.0" encoding="utf-8"?>
<svg version="1.1" xmlns="http://www.w3.org/2000/svg" xmlns:xlink="http://www.w3.org/1999/xlink" x="0px" y="0px"
	 viewBox="0 0 512 512" style="enable-background:new 0 0 512 512;" xml:space="preserve" fill="#ffffff">
<g>
	<path d="M255.7,512C112.7,509.3,1,392.1,0,255.7C2.8,112.8,119.4,1,255.7,0C398.6,2.9,511,119.2,512,255.7
		C509.2,398.7,392.2,511,255.7,512z M255.7,18.1C123,20.8,18.5,129,17.6,255.7C20.1,388.6,129,492.9,255.7,493.9
		c132.8-2.6,237.2-111.4,238.2-238.2C491.4,122.9,382.3,19.1,255.7,18.1z M194.3,465.2l65.5-188.4l68.5,184.3
		C282.1,476.5,238.5,477.5,194.3,465.2z M143.9,132.2c-24,3.3-47.3,4.4-70.2,3.5c43.5-62.1,113.1-97.1,182-97.7
		c56.4,1.1,108.9,22.4,147.5,57.3c-17.9-1.3-28.6,6.5-36.3,19.9c-11.2,34.5,12.5,60.1,25.7,86c12.6,23.7,11.6,50.6,4.7,73.7
		l-32.8,111.8l-79-234.6c8.2-0.8,16.5-1,24-2.3c8.8-2,10.8-10.2,4.7-15.2c-1.9-1.6-4.1-2.3-6.4-2.3l-47.4,3.5h-36
		c-10.2,0.6-38.8-9.2-41.3,4.1c-1.2,5.1,2.6,9.1,7,9.9c7.8,1,16.8,2.2,24,2.9l34.5,92.5l-48,141.6l-79.6-234.6
		c8.4-0.7,17-1,24.6-2.3c6.2-0.8,9-3.9,8.2-9.4C152.8,135.6,148.5,132.3,143.9,132.2z M56.2,168.5l104.7,283.2
		c-37.8-18.6-67.7-46-88.9-78.7C33.1,310.9,29,232.2,56.2,168.5z M465.5,313.9c-17.2,56.2-52.3,102.7-100.9,130.8
		c2.3-6.2,6-16.8,11.1-31.6l60.9-176.7c5.9-17.2,9.9-36.3,12.3-57.3c0.8-8.6,0.8-17.3-0.6-25.2C473.2,207.7,480.2,260.9,465.5,313.9
		z"/>
</g>
</svg>
