<?xml version="1.0" encoding="utf-8"?>
<svg version="1.1" xmlns="http://www.w3.org/2000/svg" xmlns:xlink="http://www.w3.org/1999/xlink" x="0px" y="0px"
	 viewBox="0 0 512 512" style="enable-background:new 0 0 512 512;" xml:space="preserve" fill="#ffffff">
<g>
	<path d="M140.3,451.3C253.7,466.8,365,482,478.5,497.5c-38.7-64.4-76.4-127.2-114.4-190.4
		C289.7,355,216,402.6,140.3,451.3L140.3,451.3z M510.5,94.8c-10,15-20,30-30,45C446.3,191.4,412,243,377.8,294.6
		c-1.9,2.9-4.4,5.2-1.7,9.6c33.1,54.6,65.9,109.4,98.8,164.1c5.2,8.6,10.4,17.3,17.2,25.6c6.6-132.9,13.3-265.7,20-398.6L510.5,94.8
		L510.5,94.8z M58.9,265.2c1.5,1.5,5.4,2.3,7.2,1.4c31.7-15.6,63.7-30.8,94.7-47.7c10.1-5.5,17.9-15.4,26.6-23.4
		c28.9-26.5,57.7-53,86.5-79.6c1.8-1.6,3.9-3.2,4.9-5.2c10.4-20.2,20.5-40.6,31.1-61.5c-12.6-4.7-24.5-9.3-36.5-13.5
		c-1.6-0.6-4.2,0.6-6,1.5c-27.9,15.6-56.3,30.3-83.3,47.3c-13.5,8.5-24.5,21-36.5,32c-19.3,17.6-38.6,35.3-57.6,53.2
		c-5,4.8-9.6,10.2-13.6,15.9c-13,18.9-25.6,38.1-38.8,57.9C45.1,251.1,51.8,258.4,58.9,265.2L58.9,265.2z M174.9,239.3
		c-15.8,66.7-31.5,133-47.7,201.5c76-49,150.3-96.8,224.1-144.4C292.6,277.4,234.1,258.4,174.9,239.3L174.9,239.3z M491.2,95.5
		c-64.2,10.7-126.9,21.2-190.4,31.8c21.6,52.6,42.8,104.2,64.6,157.2C407.5,221.1,448.9,159,491.2,95.5L491.2,95.5z M177.6,225.6
		c57.9,18.8,114.5,37.2,172.9,56.1C328.8,229,307.8,178,286.5,126C250.1,159.3,214.3,192.1,177.6,225.6z M61.3,304
		C40.8,353.1,21,400.4,0.8,448.7c38.8-1.1,76.4-2.3,115.2-3.4C97.8,398.2,79.9,352,61.3,304L61.3,304z M117.4,411.7l1.4-0.3
		c13.8-57.5,27.9-114.7,42-174.5c-31.5,16.4-61.6,32-92.5,48.1C84.2,326,101,369.2,117.4,411.7L117.4,411.7z M467.9,86.2
		c-18.4-4.9-36.8-9.8-55.2-14.6c-26.5-7-52.9-13.8-79.4-20.8c-3.3-0.9-5.7-1.5-7.6,2.5c-9.3,19.2-19,38.2-28.5,57.2l-0.5,2.8
		C354,104.6,411,96,467.9,87.4L467.9,86.2z M361.1,42.6c49.4,13.7,98.8,27.3,150,41.5c-8.6-24.5-16.6-47.2-24.8-70.6
		c-42,9.3-83.5,18.5-125,27.7L361.1,42.6L361.1,42.6z M130.2,462.4c-18.6-2.1-37.6-0.2-56.5,0.2c-15.5,0.3-30.9,0.9-46.4,1.3
		c-1.6,0.1-3.2,0.4-4.8,2.1c127.9,11.8,255.9,23.7,383.8,35.5l0.2-1.7c-41-5.6-82-11.2-123-16.8
		C232.4,475.9,181.4,468.3,130.2,462.4L130.2,462.4z M3.4,404.5c16.5-38.2,32.9-76.6,49.5-114.8c1.7-3.8,1.5-6.4-1.7-9.5
		c-6.9-6.6-13.3-13.7-20.9-21.6C20,309.2,10,358.5,0,407.7l1.1,0.5L3.4,404.5L3.4,404.5z M328.3,32.5c27.8-7.2,56-12.8,84-19
		c1.8-0.4,3.6-1,5.4-1.5l-0.3-1.4c-39.5,5.3-79,10.6-120.5,16.2C308.3,31.7,317,35.4,328.3,32.5L328.3,32.5z"/>
</g>
</svg>
